<mxfile host="app.diagrams.net" modified="2024-07-11T06:10:29.671Z" agent="Mozilla/5.0 (Windows NT 10.0; Win64; x64) AppleWebKit/537.36 (KHTML, like Gecko) Chrome/126.0.0.0 Safari/537.36" etag="9bHgip3qfREnTZcS4oa0" version="24.6.4" type="device">
  <diagram name="Page-1" id="oaErStKtmVnxg2jhIz69">
    <mxGraphModel dx="700" dy="379" grid="1" gridSize="10" guides="1" tooltips="1" connect="1" arrows="1" fold="1" page="1" pageScale="1" pageWidth="850" pageHeight="1100" math="0" shadow="0">
      <root>
        <mxCell id="0" />
        <mxCell id="1" parent="0" />
        <mxCell id="sV3bYk4MEAyx_ygIwpT9-2" value="User" style="rounded=0;whiteSpace=wrap;html=1;" parent="1" vertex="1">
          <mxGeometry x="400" y="230" width="50" height="30" as="geometry" />
        </mxCell>
        <mxCell id="sV3bYk4MEAyx_ygIwpT9-3" value="user_id" style="ellipse;whiteSpace=wrap;html=1;" parent="1" vertex="1">
          <mxGeometry x="330" y="290" width="50" height="30" as="geometry" />
        </mxCell>
        <mxCell id="sV3bYk4MEAyx_ygIwpT9-4" value="" style="endArrow=none;html=1;rounded=0;entryX=0.5;entryY=0;entryDx=0;entryDy=0;exitX=0;exitY=0.25;exitDx=0;exitDy=0;" parent="1" source="sV3bYk4MEAyx_ygIwpT9-2" target="sV3bYk4MEAyx_ygIwpT9-3" edge="1">
          <mxGeometry width="50" height="50" relative="1" as="geometry">
            <mxPoint x="400" y="230" as="sourcePoint" />
            <mxPoint x="380" y="250" as="targetPoint" />
          </mxGeometry>
        </mxCell>
        <mxCell id="sV3bYk4MEAyx_ygIwpT9-5" value="name" style="ellipse;whiteSpace=wrap;html=1;" parent="1" vertex="1">
          <mxGeometry x="260" y="310" width="50" height="30" as="geometry" />
        </mxCell>
        <mxCell id="sV3bYk4MEAyx_ygIwpT9-6" value="" style="endArrow=none;html=1;rounded=0;entryX=0.757;entryY=0.099;entryDx=0;entryDy=0;entryPerimeter=0;exitX=0;exitY=0.25;exitDx=0;exitDy=0;" parent="1" source="sV3bYk4MEAyx_ygIwpT9-2" target="sV3bYk4MEAyx_ygIwpT9-5" edge="1">
          <mxGeometry width="50" height="50" relative="1" as="geometry">
            <mxPoint x="330" y="208" as="sourcePoint" />
            <mxPoint x="310" y="220" as="targetPoint" />
          </mxGeometry>
        </mxCell>
        <mxCell id="sV3bYk4MEAyx_ygIwpT9-7" value="contact" style="ellipse;whiteSpace=wrap;html=1;" parent="1" vertex="1">
          <mxGeometry x="260" y="270" width="50" height="30" as="geometry" />
        </mxCell>
        <mxCell id="sV3bYk4MEAyx_ygIwpT9-8" value="" style="endArrow=none;html=1;rounded=0;entryX=0.932;entryY=0.34;entryDx=0;entryDy=0;entryPerimeter=0;exitX=0;exitY=0.25;exitDx=0;exitDy=0;" parent="1" source="sV3bYk4MEAyx_ygIwpT9-2" target="sV3bYk4MEAyx_ygIwpT9-7" edge="1">
          <mxGeometry width="50" height="50" relative="1" as="geometry">
            <mxPoint x="330" y="204" as="sourcePoint" />
            <mxPoint x="310" y="216" as="targetPoint" />
          </mxGeometry>
        </mxCell>
        <mxCell id="sV3bYk4MEAyx_ygIwpT9-9" value="address" style="ellipse;whiteSpace=wrap;html=1;" parent="1" vertex="1">
          <mxGeometry x="250" y="230" width="50" height="30" as="geometry" />
        </mxCell>
        <mxCell id="sV3bYk4MEAyx_ygIwpT9-10" value="" style="endArrow=none;html=1;rounded=0;entryX=1;entryY=0.5;entryDx=0;entryDy=0;exitX=0;exitY=0.25;exitDx=0;exitDy=0;" parent="1" source="sV3bYk4MEAyx_ygIwpT9-2" target="sV3bYk4MEAyx_ygIwpT9-9" edge="1">
          <mxGeometry width="50" height="50" relative="1" as="geometry">
            <mxPoint x="320" y="178" as="sourcePoint" />
            <mxPoint x="300" y="190" as="targetPoint" />
          </mxGeometry>
        </mxCell>
        <mxCell id="sV3bYk4MEAyx_ygIwpT9-11" value="description" style="ellipse;whiteSpace=wrap;html=1;" parent="1" vertex="1">
          <mxGeometry x="250" y="192" width="60" height="28" as="geometry" />
        </mxCell>
        <mxCell id="sV3bYk4MEAyx_ygIwpT9-12" value="" style="endArrow=none;html=1;rounded=0;entryX=1;entryY=1;entryDx=0;entryDy=0;exitX=0;exitY=0.25;exitDx=0;exitDy=0;" parent="1" source="sV3bYk4MEAyx_ygIwpT9-2" target="sV3bYk4MEAyx_ygIwpT9-11" edge="1">
          <mxGeometry width="50" height="50" relative="1" as="geometry">
            <mxPoint x="320" y="140" as="sourcePoint" />
            <mxPoint x="300" y="152" as="targetPoint" />
          </mxGeometry>
        </mxCell>
        <mxCell id="sV3bYk4MEAyx_ygIwpT9-13" value="" style="endArrow=none;html=1;rounded=0;entryX=0.5;entryY=1;entryDx=0;entryDy=0;exitX=0.5;exitY=0;exitDx=0;exitDy=0;" parent="1" source="sV3bYk4MEAyx_ygIwpT9-14" target="sV3bYk4MEAyx_ygIwpT9-2" edge="1">
          <mxGeometry width="50" height="50" relative="1" as="geometry">
            <mxPoint x="425" y="360" as="sourcePoint" />
            <mxPoint x="460" y="310" as="targetPoint" />
          </mxGeometry>
        </mxCell>
        <mxCell id="sV3bYk4MEAyx_ygIwpT9-15" value="1" style="edgeLabel;html=1;align=center;verticalAlign=middle;resizable=0;points=[];" parent="sV3bYk4MEAyx_ygIwpT9-13" vertex="1" connectable="0">
          <mxGeometry x="-0.1062" relative="1" as="geometry">
            <mxPoint as="offset" />
          </mxGeometry>
        </mxCell>
        <mxCell id="sV3bYk4MEAyx_ygIwpT9-14" value="can buy/sell" style="rhombus;whiteSpace=wrap;html=1;" parent="1" vertex="1">
          <mxGeometry x="385" y="350" width="80" height="80" as="geometry" />
        </mxCell>
        <mxCell id="sV3bYk4MEAyx_ygIwpT9-16" value="" style="endArrow=none;html=1;rounded=0;entryX=0.5;entryY=1;entryDx=0;entryDy=0;exitX=0.5;exitY=0;exitDx=0;exitDy=0;" parent="1" source="sV3bYk4MEAyx_ygIwpT9-18" target="sV3bYk4MEAyx_ygIwpT9-14" edge="1">
          <mxGeometry width="50" height="50" relative="1" as="geometry">
            <mxPoint x="425" y="450" as="sourcePoint" />
            <mxPoint x="465" y="480" as="targetPoint" />
          </mxGeometry>
        </mxCell>
        <mxCell id="sV3bYk4MEAyx_ygIwpT9-17" value="n" style="edgeLabel;html=1;align=center;verticalAlign=middle;resizable=0;points=[];" parent="sV3bYk4MEAyx_ygIwpT9-16" vertex="1" connectable="0">
          <mxGeometry x="-0.1476" y="1" relative="1" as="geometry">
            <mxPoint as="offset" />
          </mxGeometry>
        </mxCell>
        <mxCell id="sV3bYk4MEAyx_ygIwpT9-18" value="commoditites" style="rounded=0;whiteSpace=wrap;html=1;" parent="1" vertex="1">
          <mxGeometry x="385" y="500" width="80" height="30" as="geometry" />
        </mxCell>
        <mxCell id="sV3bYk4MEAyx_ygIwpT9-19" value="role" style="ellipse;whiteSpace=wrap;html=1;" parent="1" vertex="1">
          <mxGeometry x="270" y="150" width="50" height="30" as="geometry" />
        </mxCell>
        <mxCell id="sV3bYk4MEAyx_ygIwpT9-20" value="" style="endArrow=none;html=1;rounded=0;entryX=0.633;entryY=0.931;entryDx=0;entryDy=0;entryPerimeter=0;exitX=0;exitY=0.25;exitDx=0;exitDy=0;" parent="1" source="sV3bYk4MEAyx_ygIwpT9-2" target="sV3bYk4MEAyx_ygIwpT9-19" edge="1">
          <mxGeometry width="50" height="50" relative="1" as="geometry">
            <mxPoint x="400" y="240" as="sourcePoint" />
            <mxPoint x="430" y="300" as="targetPoint" />
          </mxGeometry>
        </mxCell>
        <mxCell id="sV3bYk4MEAyx_ygIwpT9-21" value="commodity_id" style="ellipse;whiteSpace=wrap;html=1;" parent="1" vertex="1">
          <mxGeometry x="320" y="580" width="85" height="40" as="geometry" />
        </mxCell>
        <mxCell id="sV3bYk4MEAyx_ygIwpT9-22" value="" style="endArrow=none;html=1;rounded=0;entryX=0;entryY=0.5;entryDx=0;entryDy=0;exitX=0.708;exitY=0.081;exitDx=0;exitDy=0;exitPerimeter=0;" parent="1" source="sV3bYk4MEAyx_ygIwpT9-21" target="sV3bYk4MEAyx_ygIwpT9-18" edge="1">
          <mxGeometry width="50" height="50" relative="1" as="geometry">
            <mxPoint x="310" y="520" as="sourcePoint" />
            <mxPoint x="360" y="470" as="targetPoint" />
          </mxGeometry>
        </mxCell>
        <mxCell id="sV3bYk4MEAyx_ygIwpT9-23" value="name" style="ellipse;whiteSpace=wrap;html=1;" parent="1" vertex="1">
          <mxGeometry x="260" y="530" width="50" height="30" as="geometry" />
        </mxCell>
        <mxCell id="sV3bYk4MEAyx_ygIwpT9-24" value="" style="endArrow=none;html=1;rounded=0;entryX=1;entryY=0;entryDx=0;entryDy=0;exitX=0;exitY=0.5;exitDx=0;exitDy=0;" parent="1" source="sV3bYk4MEAyx_ygIwpT9-18" target="sV3bYk4MEAyx_ygIwpT9-23" edge="1">
          <mxGeometry width="50" height="50" relative="1" as="geometry">
            <mxPoint x="315" y="430" as="sourcePoint" />
            <mxPoint x="295" y="442" as="targetPoint" />
          </mxGeometry>
        </mxCell>
        <mxCell id="sV3bYk4MEAyx_ygIwpT9-25" value="image" style="ellipse;whiteSpace=wrap;html=1;" parent="1" vertex="1">
          <mxGeometry x="250" y="490" width="50" height="30" as="geometry" />
        </mxCell>
        <mxCell id="sV3bYk4MEAyx_ygIwpT9-26" value="" style="endArrow=none;html=1;rounded=0;entryX=1;entryY=0.5;entryDx=0;entryDy=0;exitX=0;exitY=0.5;exitDx=0;exitDy=0;" parent="1" source="sV3bYk4MEAyx_ygIwpT9-18" target="sV3bYk4MEAyx_ygIwpT9-25" edge="1">
          <mxGeometry width="50" height="50" relative="1" as="geometry">
            <mxPoint x="425" y="499.9999999999999" as="sourcePoint" />
            <mxPoint x="300" y="415" as="targetPoint" />
          </mxGeometry>
        </mxCell>
        <mxCell id="sV3bYk4MEAyx_ygIwpT9-27" value="description" style="ellipse;whiteSpace=wrap;html=1;" parent="1" vertex="1">
          <mxGeometry x="230" y="450" width="70" height="28" as="geometry" />
        </mxCell>
        <mxCell id="sV3bYk4MEAyx_ygIwpT9-28" value="" style="endArrow=none;html=1;rounded=0;entryX=1;entryY=1;entryDx=0;entryDy=0;exitX=0;exitY=0.5;exitDx=0;exitDy=0;" parent="1" source="sV3bYk4MEAyx_ygIwpT9-18" target="sV3bYk4MEAyx_ygIwpT9-27" edge="1">
          <mxGeometry width="50" height="50" relative="1" as="geometry">
            <mxPoint x="320" y="370" as="sourcePoint" />
            <mxPoint x="300" y="382" as="targetPoint" />
          </mxGeometry>
        </mxCell>
        <mxCell id="sV3bYk4MEAyx_ygIwpT9-29" value="price" style="ellipse;whiteSpace=wrap;html=1;" parent="1" vertex="1">
          <mxGeometry x="240" y="410" width="50" height="30" as="geometry" />
        </mxCell>
        <mxCell id="sV3bYk4MEAyx_ygIwpT9-30" value="" style="endArrow=none;html=1;rounded=0;entryX=1;entryY=1;entryDx=0;entryDy=0;exitX=0;exitY=0.5;exitDx=0;exitDy=0;" parent="1" source="sV3bYk4MEAyx_ygIwpT9-18" target="sV3bYk4MEAyx_ygIwpT9-29" edge="1">
          <mxGeometry width="50" height="50" relative="1" as="geometry">
            <mxPoint x="325" y="340" as="sourcePoint" />
            <mxPoint x="305" y="352" as="targetPoint" />
          </mxGeometry>
        </mxCell>
        <mxCell id="sV3bYk4MEAyx_ygIwpT9-31" value="min qty" style="ellipse;whiteSpace=wrap;html=1;" parent="1" vertex="1">
          <mxGeometry x="300" y="410" width="50" height="30" as="geometry" />
        </mxCell>
        <mxCell id="sV3bYk4MEAyx_ygIwpT9-32" value="" style="endArrow=none;html=1;rounded=0;entryX=0.705;entryY=1.062;entryDx=0;entryDy=0;entryPerimeter=0;exitX=0;exitY=0.5;exitDx=0;exitDy=0;" parent="1" source="sV3bYk4MEAyx_ygIwpT9-18" target="sV3bYk4MEAyx_ygIwpT9-31" edge="1">
          <mxGeometry width="50" height="50" relative="1" as="geometry">
            <mxPoint x="500" y="338" as="sourcePoint" />
            <mxPoint x="480" y="350" as="targetPoint" />
          </mxGeometry>
        </mxCell>
        <mxCell id="sV3bYk4MEAyx_ygIwpT9-33" value="user_id" style="ellipse;whiteSpace=wrap;html=1;" parent="1" vertex="1">
          <mxGeometry x="280" y="560" width="50" height="30" as="geometry" />
        </mxCell>
        <mxCell id="sV3bYk4MEAyx_ygIwpT9-34" value="" style="endArrow=none;html=1;rounded=0;entryX=0.757;entryY=0.099;entryDx=0;entryDy=0;entryPerimeter=0;exitX=0;exitY=0.5;exitDx=0;exitDy=0;" parent="1" source="sV3bYk4MEAyx_ygIwpT9-18" target="sV3bYk4MEAyx_ygIwpT9-33" edge="1">
          <mxGeometry width="50" height="50" relative="1" as="geometry">
            <mxPoint x="510" y="348" as="sourcePoint" />
            <mxPoint x="490" y="360" as="targetPoint" />
          </mxGeometry>
        </mxCell>
        <mxCell id="sV3bYk4MEAyx_ygIwpT9-35" value="" style="endArrow=none;html=1;rounded=0;exitX=1;exitY=0.5;exitDx=0;exitDy=0;entryX=0;entryY=0.5;entryDx=0;entryDy=0;" parent="1" source="sV3bYk4MEAyx_ygIwpT9-2" target="sV3bYk4MEAyx_ygIwpT9-36" edge="1">
          <mxGeometry width="50" height="50" relative="1" as="geometry">
            <mxPoint x="520" y="250" as="sourcePoint" />
            <mxPoint x="530" y="245" as="targetPoint" />
          </mxGeometry>
        </mxCell>
        <mxCell id="sV3bYk4MEAyx_ygIwpT9-37" value="1" style="edgeLabel;html=1;align=center;verticalAlign=middle;resizable=0;points=[];" parent="sV3bYk4MEAyx_ygIwpT9-35" vertex="1" connectable="0">
          <mxGeometry x="0.0619" y="-1" relative="1" as="geometry">
            <mxPoint as="offset" />
          </mxGeometry>
        </mxCell>
        <mxCell id="sV3bYk4MEAyx_ygIwpT9-36" value="can lend/borrow" style="rhombus;whiteSpace=wrap;html=1;" parent="1" vertex="1">
          <mxGeometry x="520" y="197.5" width="100" height="95" as="geometry" />
        </mxCell>
        <mxCell id="sV3bYk4MEAyx_ygIwpT9-38" value="" style="endArrow=none;html=1;rounded=0;exitX=1;exitY=0.5;exitDx=0;exitDy=0;entryX=0;entryY=0.5;entryDx=0;entryDy=0;" parent="1" source="sV3bYk4MEAyx_ygIwpT9-36" target="sV3bYk4MEAyx_ygIwpT9-39" edge="1">
          <mxGeometry width="50" height="50" relative="1" as="geometry">
            <mxPoint x="650" y="260" as="sourcePoint" />
            <mxPoint x="690" y="245" as="targetPoint" />
          </mxGeometry>
        </mxCell>
        <mxCell id="sV3bYk4MEAyx_ygIwpT9-42" value="n" style="edgeLabel;html=1;align=center;verticalAlign=middle;resizable=0;points=[];" parent="sV3bYk4MEAyx_ygIwpT9-38" vertex="1" connectable="0">
          <mxGeometry x="-0.1778" y="-1" relative="1" as="geometry">
            <mxPoint as="offset" />
          </mxGeometry>
        </mxCell>
        <mxCell id="sV3bYk4MEAyx_ygIwpT9-39" value="equipment" style="rounded=0;whiteSpace=wrap;html=1;" parent="1" vertex="1">
          <mxGeometry x="680" y="230" width="70" height="30" as="geometry" />
        </mxCell>
        <mxCell id="sV3bYk4MEAyx_ygIwpT9-40" value="equipment_id" style="ellipse;whiteSpace=wrap;html=1;" parent="1" vertex="1">
          <mxGeometry x="540" y="162" width="100" height="30" as="geometry" />
        </mxCell>
        <mxCell id="sV3bYk4MEAyx_ygIwpT9-41" value="" style="endArrow=none;html=1;rounded=0;entryX=0.8;entryY=1;entryDx=0;entryDy=0;entryPerimeter=0;exitX=0.25;exitY=0;exitDx=0;exitDy=0;" parent="1" source="sV3bYk4MEAyx_ygIwpT9-39" target="sV3bYk4MEAyx_ygIwpT9-40" edge="1">
          <mxGeometry width="50" height="50" relative="1" as="geometry">
            <mxPoint x="720" y="258" as="sourcePoint" />
            <mxPoint x="700" y="270" as="targetPoint" />
          </mxGeometry>
        </mxCell>
        <mxCell id="sV3bYk4MEAyx_ygIwpT9-43" value="name" style="ellipse;whiteSpace=wrap;html=1;" parent="1" vertex="1">
          <mxGeometry x="626.44" y="108" width="60" height="40" as="geometry" />
        </mxCell>
        <mxCell id="sV3bYk4MEAyx_ygIwpT9-44" value="" style="endArrow=none;html=1;rounded=0;entryX=0.5;entryY=1;entryDx=0;entryDy=0;exitX=0.25;exitY=0;exitDx=0;exitDy=0;" parent="1" source="sV3bYk4MEAyx_ygIwpT9-39" target="sV3bYk4MEAyx_ygIwpT9-43" edge="1">
          <mxGeometry width="50" height="50" relative="1" as="geometry">
            <mxPoint x="770" y="88" as="sourcePoint" />
            <mxPoint x="750" y="100" as="targetPoint" />
          </mxGeometry>
        </mxCell>
        <mxCell id="sV3bYk4MEAyx_ygIwpT9-45" value="description" style="ellipse;whiteSpace=wrap;html=1;" parent="1" vertex="1">
          <mxGeometry x="730" y="91" width="80" height="48" as="geometry" />
        </mxCell>
        <mxCell id="sV3bYk4MEAyx_ygIwpT9-46" value="" style="endArrow=none;html=1;rounded=0;entryX=0.273;entryY=0.911;entryDx=0;entryDy=0;entryPerimeter=0;exitX=0.25;exitY=0;exitDx=0;exitDy=0;" parent="1" source="sV3bYk4MEAyx_ygIwpT9-39" target="sV3bYk4MEAyx_ygIwpT9-45" edge="1">
          <mxGeometry width="50" height="50" relative="1" as="geometry">
            <mxPoint x="810" y="50" as="sourcePoint" />
            <mxPoint x="790" y="62" as="targetPoint" />
          </mxGeometry>
        </mxCell>
        <mxCell id="sV3bYk4MEAyx_ygIwpT9-49" value="image" style="ellipse;whiteSpace=wrap;html=1;" parent="1" vertex="1">
          <mxGeometry x="680" y="148" width="50" height="30" as="geometry" />
        </mxCell>
        <mxCell id="sV3bYk4MEAyx_ygIwpT9-50" value="" style="endArrow=none;html=1;rounded=0;entryX=0.34;entryY=1.056;entryDx=0;entryDy=0;entryPerimeter=0;exitX=0.25;exitY=0;exitDx=0;exitDy=0;" parent="1" source="sV3bYk4MEAyx_ygIwpT9-39" target="sV3bYk4MEAyx_ygIwpT9-49" edge="1">
          <mxGeometry width="50" height="50" relative="1" as="geometry">
            <mxPoint x="680" y="239" as="sourcePoint" />
            <mxPoint x="752.5" y="100" as="targetPoint" />
          </mxGeometry>
        </mxCell>
        <mxCell id="sV3bYk4MEAyx_ygIwpT9-51" value="price" style="ellipse;whiteSpace=wrap;html=1;" parent="1" vertex="1">
          <mxGeometry x="749.9999999999999" y="162" width="50" height="30" as="geometry" />
        </mxCell>
        <mxCell id="sV3bYk4MEAyx_ygIwpT9-52" value="" style="endArrow=none;html=1;rounded=0;entryX=0;entryY=1;entryDx=0;entryDy=0;exitX=0.25;exitY=0;exitDx=0;exitDy=0;" parent="1" source="sV3bYk4MEAyx_ygIwpT9-39" target="sV3bYk4MEAyx_ygIwpT9-51" edge="1">
          <mxGeometry width="50" height="50" relative="1" as="geometry">
            <mxPoint x="710" y="229.99999999999997" as="sourcePoint" />
            <mxPoint x="826.1199999999999" y="123.34" as="targetPoint" />
          </mxGeometry>
        </mxCell>
        <mxCell id="v7QqQT0Lke6nyUutmZaP-2" value="user_id&lt;div&gt;(lend)&lt;/div&gt;" style="ellipse;whiteSpace=wrap;html=1;" vertex="1" parent="1">
          <mxGeometry x="800" y="192" width="50" height="42.5" as="geometry" />
        </mxCell>
        <mxCell id="v7QqQT0Lke6nyUutmZaP-3" value="" style="endArrow=none;html=1;rounded=0;entryX=0;entryY=0.5;entryDx=0;entryDy=0;exitX=0.25;exitY=0;exitDx=0;exitDy=0;" edge="1" parent="1" target="v7QqQT0Lke6nyUutmZaP-2" source="sV3bYk4MEAyx_ygIwpT9-39">
          <mxGeometry width="50" height="50" relative="1" as="geometry">
            <mxPoint x="730" y="265.5" as="sourcePoint" />
            <mxPoint x="858.1199999999999" y="158.84" as="targetPoint" />
          </mxGeometry>
        </mxCell>
        <mxCell id="v7QqQT0Lke6nyUutmZaP-4" value="" style="endArrow=none;html=1;rounded=0;exitX=1;exitY=1;exitDx=0;exitDy=0;entryX=0.5;entryY=0;entryDx=0;entryDy=0;" edge="1" parent="1" source="sV3bYk4MEAyx_ygIwpT9-2" target="v7QqQT0Lke6nyUutmZaP-5">
          <mxGeometry width="50" height="50" relative="1" as="geometry">
            <mxPoint x="520" y="360" as="sourcePoint" />
            <mxPoint x="530" y="360" as="targetPoint" />
          </mxGeometry>
        </mxCell>
        <mxCell id="v7QqQT0Lke6nyUutmZaP-5" value="buy request" style="rhombus;whiteSpace=wrap;html=1;" vertex="1" parent="1">
          <mxGeometry x="530" y="350" width="80" height="80" as="geometry" />
        </mxCell>
        <mxCell id="v7QqQT0Lke6nyUutmZaP-7" value="" style="endArrow=none;html=1;rounded=0;entryX=0;entryY=0.5;entryDx=0;entryDy=0;exitX=1;exitY=0.5;exitDx=0;exitDy=0;" edge="1" parent="1" source="sV3bYk4MEAyx_ygIwpT9-14" target="v7QqQT0Lke6nyUutmZaP-5">
          <mxGeometry width="50" height="50" relative="1" as="geometry">
            <mxPoint x="470" y="458" as="sourcePoint" />
            <mxPoint x="520" y="408" as="targetPoint" />
          </mxGeometry>
        </mxCell>
        <mxCell id="v7QqQT0Lke6nyUutmZaP-10" value="total qty" style="ellipse;whiteSpace=wrap;html=1;" vertex="1" parent="1">
          <mxGeometry x="360" y="430" width="60" height="35" as="geometry" />
        </mxCell>
        <mxCell id="v7QqQT0Lke6nyUutmZaP-11" value="" style="endArrow=none;html=1;rounded=0;entryX=0.5;entryY=1;entryDx=0;entryDy=0;exitX=0;exitY=0.5;exitDx=0;exitDy=0;" edge="1" parent="1" target="v7QqQT0Lke6nyUutmZaP-10" source="sV3bYk4MEAyx_ygIwpT9-18">
          <mxGeometry width="50" height="50" relative="1" as="geometry">
            <mxPoint x="445" y="530" as="sourcePoint" />
            <mxPoint x="540" y="365" as="targetPoint" />
          </mxGeometry>
        </mxCell>
        <mxCell id="v7QqQT0Lke6nyUutmZaP-13" value="qty" style="ellipse;whiteSpace=wrap;html=1;" vertex="1" parent="1">
          <mxGeometry x="560" y="510" width="50" height="40" as="geometry" />
        </mxCell>
        <mxCell id="v7QqQT0Lke6nyUutmZaP-14" value="" style="endArrow=none;html=1;rounded=0;exitX=0.584;exitY=0.923;exitDx=0;exitDy=0;exitPerimeter=0;" edge="1" parent="1" source="v7QqQT0Lke6nyUutmZaP-5">
          <mxGeometry width="50" height="50" relative="1" as="geometry">
            <mxPoint x="576.3200000000002" y="440" as="sourcePoint" />
            <mxPoint x="580" y="513" as="targetPoint" />
          </mxGeometry>
        </mxCell>
        <mxCell id="v7QqQT0Lke6nyUutmZaP-15" value="user_id&lt;div&gt;(purchasing)&lt;/div&gt;" style="ellipse;whiteSpace=wrap;html=1;" vertex="1" parent="1">
          <mxGeometry x="610" y="510" width="80" height="50" as="geometry" />
        </mxCell>
        <mxCell id="v7QqQT0Lke6nyUutmZaP-16" value="" style="endArrow=none;html=1;rounded=0;exitX=0.582;exitY=0.923;exitDx=0;exitDy=0;exitPerimeter=0;entryX=0.259;entryY=0.114;entryDx=0;entryDy=0;entryPerimeter=0;" edge="1" parent="1" source="v7QqQT0Lke6nyUutmZaP-5" target="v7QqQT0Lke6nyUutmZaP-15">
          <mxGeometry width="50" height="50" relative="1" as="geometry">
            <mxPoint x="620" y="435.44000000000005" as="sourcePoint" />
            <mxPoint x="692.8" y="525.56" as="targetPoint" />
          </mxGeometry>
        </mxCell>
        <mxCell id="v7QqQT0Lke6nyUutmZaP-17" value="commodity_id" style="ellipse;whiteSpace=wrap;html=1;" vertex="1" parent="1">
          <mxGeometry x="692.88" y="497.36" width="87.12" height="42.64" as="geometry" />
        </mxCell>
        <mxCell id="v7QqQT0Lke6nyUutmZaP-18" value="" style="endArrow=none;html=1;rounded=0;exitX=0.58;exitY=0.918;exitDx=0;exitDy=0;exitPerimeter=0;entryX=0;entryY=0;entryDx=0;entryDy=0;" edge="1" parent="1" source="v7QqQT0Lke6nyUutmZaP-5" target="v7QqQT0Lke6nyUutmZaP-17">
          <mxGeometry width="50" height="50" relative="1" as="geometry">
            <mxPoint x="560.0000000000001" y="410" as="sourcePoint" />
            <mxPoint x="712.88" y="500.36" as="targetPoint" />
          </mxGeometry>
        </mxCell>
        <mxCell id="v7QqQT0Lke6nyUutmZaP-19" value="" style="endArrow=none;html=1;rounded=0;exitX=0.5;exitY=0;exitDx=0;exitDy=0;entryX=0.5;entryY=1;entryDx=0;entryDy=0;" edge="1" parent="1" source="sV3bYk4MEAyx_ygIwpT9-2" target="v7QqQT0Lke6nyUutmZaP-22">
          <mxGeometry width="50" height="50" relative="1" as="geometry">
            <mxPoint x="420" y="174" as="sourcePoint" />
            <mxPoint x="425" y="110" as="targetPoint" />
          </mxGeometry>
        </mxCell>
        <mxCell id="v7QqQT0Lke6nyUutmZaP-22" value="cart" style="rounded=0;whiteSpace=wrap;html=1;" vertex="1" parent="1">
          <mxGeometry x="393" y="100" width="65" height="30" as="geometry" />
        </mxCell>
        <mxCell id="v7QqQT0Lke6nyUutmZaP-23" value="" style="endArrow=none;html=1;rounded=0;exitX=0.5;exitY=0;exitDx=0;exitDy=0;entryX=0.5;entryY=1;entryDx=0;entryDy=0;" edge="1" parent="1" source="v7QqQT0Lke6nyUutmZaP-22" target="v7QqQT0Lke6nyUutmZaP-24">
          <mxGeometry width="50" height="50" relative="1" as="geometry">
            <mxPoint x="415" y="90" as="sourcePoint" />
            <mxPoint x="400" y="60" as="targetPoint" />
          </mxGeometry>
        </mxCell>
        <mxCell id="v7QqQT0Lke6nyUutmZaP-24" value="commodities" style="ellipse;whiteSpace=wrap;html=1;" vertex="1" parent="1">
          <mxGeometry x="345" y="10" width="90" height="40" as="geometry" />
        </mxCell>
        <mxCell id="v7QqQT0Lke6nyUutmZaP-25" value="" style="endArrow=none;html=1;rounded=0;exitX=1;exitY=0.75;exitDx=0;exitDy=0;entryX=0;entryY=0.5;entryDx=0;entryDy=0;" edge="1" parent="1" source="sV3bYk4MEAyx_ygIwpT9-2" target="v7QqQT0Lke6nyUutmZaP-26">
          <mxGeometry width="50" height="50" relative="1" as="geometry">
            <mxPoint x="690" y="360" as="sourcePoint" />
            <mxPoint x="670" y="340" as="targetPoint" />
          </mxGeometry>
        </mxCell>
        <mxCell id="v7QqQT0Lke6nyUutmZaP-26" value="borrow request" style="rhombus;whiteSpace=wrap;html=1;" vertex="1" parent="1">
          <mxGeometry x="686.44" y="330" width="80" height="80" as="geometry" />
        </mxCell>
        <mxCell id="v7QqQT0Lke6nyUutmZaP-27" value="" style="endArrow=none;html=1;rounded=0;entryX=0.624;entryY=1;entryDx=0;entryDy=0;exitX=0.5;exitY=0;exitDx=0;exitDy=0;entryPerimeter=0;" edge="1" parent="1" source="v7QqQT0Lke6nyUutmZaP-26" target="sV3bYk4MEAyx_ygIwpT9-39">
          <mxGeometry width="50" height="50" relative="1" as="geometry">
            <mxPoint x="700" y="340" as="sourcePoint" />
            <mxPoint x="750" y="290" as="targetPoint" />
          </mxGeometry>
        </mxCell>
        <mxCell id="v7QqQT0Lke6nyUutmZaP-28" value="equipment_id" style="ellipse;whiteSpace=wrap;html=1;" vertex="1" parent="1">
          <mxGeometry x="810" y="300" width="100" height="40" as="geometry" />
        </mxCell>
        <mxCell id="v7QqQT0Lke6nyUutmZaP-29" value="" style="endArrow=none;html=1;rounded=0;exitX=1;exitY=0.5;exitDx=0;exitDy=0;entryX=0.092;entryY=0.809;entryDx=0;entryDy=0;entryPerimeter=0;" edge="1" parent="1" source="v7QqQT0Lke6nyUutmZaP-26" target="v7QqQT0Lke6nyUutmZaP-28">
          <mxGeometry width="50" height="50" relative="1" as="geometry">
            <mxPoint x="780" y="305" as="sourcePoint" />
            <mxPoint x="843.56" y="308" as="targetPoint" />
          </mxGeometry>
        </mxCell>
        <mxCell id="v7QqQT0Lke6nyUutmZaP-30" value="luser_id&lt;div&gt;(borrow)&lt;/div&gt;" style="ellipse;whiteSpace=wrap;html=1;" vertex="1" parent="1">
          <mxGeometry x="850" y="350" width="80" height="50" as="geometry" />
        </mxCell>
        <mxCell id="v7QqQT0Lke6nyUutmZaP-31" value="" style="endArrow=none;html=1;rounded=0;exitX=1;exitY=0.5;exitDx=0;exitDy=0;entryX=0;entryY=0.5;entryDx=0;entryDy=0;" edge="1" parent="1" source="v7QqQT0Lke6nyUutmZaP-26" target="v7QqQT0Lke6nyUutmZaP-30">
          <mxGeometry width="50" height="50" relative="1" as="geometry">
            <mxPoint x="790" y="357" as="sourcePoint" />
            <mxPoint x="923.56" y="428" as="targetPoint" />
          </mxGeometry>
        </mxCell>
        <mxCell id="v7QqQT0Lke6nyUutmZaP-32" value="time period" style="ellipse;whiteSpace=wrap;html=1;" vertex="1" parent="1">
          <mxGeometry x="840" y="416" width="80" height="44" as="geometry" />
        </mxCell>
        <mxCell id="v7QqQT0Lke6nyUutmZaP-33" value="" style="endArrow=none;html=1;rounded=0;exitX=1;exitY=0.5;exitDx=0;exitDy=0;" edge="1" parent="1" source="v7QqQT0Lke6nyUutmZaP-26">
          <mxGeometry width="50" height="50" relative="1" as="geometry">
            <mxPoint x="857" y="330" as="sourcePoint" />
            <mxPoint x="860" y="419" as="targetPoint" />
          </mxGeometry>
        </mxCell>
        <mxCell id="v7QqQT0Lke6nyUutmZaP-34" value="image" style="ellipse;whiteSpace=wrap;html=1;" vertex="1" parent="1">
          <mxGeometry x="337.5" y="139" width="50" height="40" as="geometry" />
        </mxCell>
        <mxCell id="v7QqQT0Lke6nyUutmZaP-35" value="" style="endArrow=none;html=1;rounded=0;exitX=0;exitY=0.25;exitDx=0;exitDy=0;entryX=0.752;entryY=0.972;entryDx=0;entryDy=0;entryPerimeter=0;" edge="1" parent="1" source="sV3bYk4MEAyx_ygIwpT9-2" target="v7QqQT0Lke6nyUutmZaP-34">
          <mxGeometry width="50" height="50" relative="1" as="geometry">
            <mxPoint x="337" y="54" as="sourcePoint" />
            <mxPoint x="340" y="143" as="targetPoint" />
          </mxGeometry>
        </mxCell>
      </root>
    </mxGraphModel>
  </diagram>
</mxfile>
